<?xml version="1.0" standalone="no"?><!DOCTYPE svg PUBLIC "-//W3C//DTD SVG 1.1//EN" "http://www.w3.org/Graphics/SVG/1.1/DTD/svg11.dtd"><svg t="1591177902812" class="icon" viewBox="0 0 1024 1024" version="1.1" xmlns="http://www.w3.org/2000/svg" p-id="18219" xmlns:xlink="http://www.w3.org/1999/xlink" width="16" height="16"><defs><style type="text/css"></style></defs><path d="M305.92 810.666667H170.666667a42.666667 42.666667 0 0 1 0-85.333334h135.253333a128.042667 128.042667 0 1 1 0 85.333334z m454.826667-341.333334H853.333333a42.666667 42.666667 0 0 1 0 85.333334h-92.586666a128.042667 128.042667 0 1 1 0-85.333334zM640 554.666667a42.666667 42.666667 0 1 0 0-85.333334 42.666667 42.666667 0 0 0 0 85.333334z m-128-256a42.666667 42.666667 0 0 1 0-85.333334h341.333333a42.666667 42.666667 0 0 1 0 85.333334h-341.333333z m-341.333333 256a42.666667 42.666667 0 0 1 0-85.333334h213.333333a42.666667 42.666667 0 0 1 0 85.333334H170.666667z m256 256a42.666667 42.666667 0 1 0 0-85.333334 42.666667 42.666667 0 0 0 0 85.333334zM256 384a128 128 0 1 1 0-256 128 128 0 0 1 0 256z m0-85.333333a42.666667 42.666667 0 1 0 0-85.333334 42.666667 42.666667 0 0 0 0 85.333334z m426.666667 512a42.666667 42.666667 0 0 1 0-85.333334h170.666666a42.666667 42.666667 0 0 1 0 85.333334h-170.666666z" p-id="18220" fill="#e6e6e6"></path></svg>