<?xml version="1.0" standalone="no"?><!DOCTYPE svg PUBLIC "-//W3C//DTD SVG 1.1//EN" "http://www.w3.org/Graphics/SVG/1.1/DTD/svg11.dtd"><svg t="1590740100403" class="icon" viewBox="0 0 1024 1024" version="1.1" xmlns="http://www.w3.org/2000/svg" p-id="5414" xmlns:xlink="http://www.w3.org/1999/xlink" width="16" height="16"><defs><style type="text/css"></style></defs><path d="M864.52459 1015.606557h-805.770492c-28.537705 0-50.360656-21.822951-50.360655-50.360655v-906.491804c0-28.537705 21.822951-50.360656 50.360655-50.360655h805.770492c28.537705 0 50.360656 21.822951 50.360656 50.360655v906.491804c0 28.537705-21.822951 50.360656-50.360656 50.360655z" fill="#455A64" p-id="5415"></path><path d="M864.52459 8.393443h-805.770492c-28.537705 0-50.360656 21.822951-50.360655 50.360655v117.508197h906.491803v-117.508197c0-28.537705-21.822951-50.360656-50.360656-50.360655z" fill="#B0BEC5" p-id="5416"></path><path d="M965.245902 1015.606557h-805.770492c-28.537705 0-50.360656-21.822951-50.360656-50.360655v-906.491804c0-28.537705 21.822951-50.360656 50.360656-50.360655h805.770492c28.537705 0 50.360656 21.822951 50.360655 50.360655v906.491804c0 28.537705-21.822951 50.360656-50.360655 50.360655z" fill="#546E7A" p-id="5417"></path><path d="M965.245902 8.393443h-805.770492c-28.537705 0-50.360656 21.822951-50.360656 50.360655v117.508197h906.491803v-117.508197c0-28.537705-21.822951-50.360656-50.360655-50.360655z" fill="#CFD8DC" p-id="5418"></path><path d="M251.803279 134.295082h-50.360656c-10.072131 0-16.786885-6.714754-16.786885-16.786885V67.147541c0-10.072131 6.714754-16.786885 16.786885-16.786885h50.360656c10.072131 0 16.786885 6.714754 16.786885 16.786885v50.360656c0 10.072131-6.714754 16.786885-16.786885 16.786885zM419.672131 134.295082h-50.360656c-10.072131 0-16.786885-6.714754-16.786885-16.786885V67.147541c0-10.072131 6.714754-16.786885 16.786885-16.786885h50.360656c10.072131 0 16.786885 6.714754 16.786885 16.786885v50.360656c0 10.072131-6.714754 16.786885-16.786885 16.786885zM587.540984 134.295082h-50.360656c-10.072131 0-16.786885-6.714754-16.786885-16.786885V67.147541c0-10.072131 6.714754-16.786885 16.786885-16.786885h50.360656c10.072131 0 16.786885 6.714754 16.786885 16.786885v50.360656c0 10.072131-6.714754 16.786885-16.786885 16.786885zM755.409836 134.295082h-50.360656c-10.072131 0-16.786885-6.714754-16.786885-16.786885V67.147541c0-10.072131 6.714754-16.786885 16.786885-16.786885h50.360656c10.072131 0 16.786885 6.714754 16.786885 16.786885v50.360656c0 10.072131-6.714754 16.786885-16.786885 16.786885zM923.278689 134.295082h-50.360656c-10.072131 0-16.786885-6.714754-16.786885-16.786885V67.147541c0-10.072131 6.714754-16.786885 16.786885-16.786885h50.360656c10.072131 0 16.786885 6.714754 16.786885 16.786885v50.360656c0 10.072131-6.714754 16.786885-16.786885 16.786885z" fill="#455A64" p-id="5419"></path><path d="M193.04918 814.163934h83.934427v201.442623h-83.934427zM276.983607 814.163934h83.934426v201.442623h-83.934426z" fill="#CFD8DC" p-id="5420"></path><path d="M243.409836 814.163934h67.147541v100.721312h-67.147541z" fill="#455A64" p-id="5421"></path><path d="M360.918033 814.163934h83.934426v201.442623h-83.934426zM444.852459 814.163934h83.934426v201.442623h-83.934426z" fill="#CFD8DC" p-id="5422"></path><path d="M411.278689 814.163934h67.147541v100.721312h-67.147541z" fill="#455A64" p-id="5423"></path><path d="M595.934426 814.163934h83.934426v201.442623h-83.934426zM679.868852 814.163934h83.934427v201.442623h-83.934427z" fill="#CFD8DC" p-id="5424"></path><path d="M646.295082 814.163934h67.147541v100.721312h-67.147541z" fill="#455A64" p-id="5425"></path><path d="M763.803279 814.163934h83.934426v201.442623h-83.934426zM847.737705 814.163934h83.934426v201.442623h-83.934426z" fill="#CFD8DC" p-id="5426"></path><path d="M814.163934 814.163934h67.147541v100.721312h-67.147541z" fill="#455A64" p-id="5427"></path><path d="M193.04918 176.262295h738.622951v453.245902h-738.622951z" fill="#26C6DA" p-id="5428"></path><path d="M898.098361 721.836066m-33.573771 0a33.57377 33.57377 0 1 0 67.147541 0 33.57377 33.57377 0 1 0-67.147541 0Z" fill="#26C6DA" p-id="5429"></path><path d="M763.803279 721.836066m-33.573771 0a33.57377 33.57377 0 1 0 67.147541 0 33.57377 33.57377 0 1 0-67.147541 0Z" fill="#26C6DA" p-id="5430"></path><path d="M743.659016 285.377049c-6.714754-6.714754-16.786885-10.072131-26.859016-8.393442l-251.803279 33.57377c-16.786885 1.678689-28.537705 16.786885-28.537705 33.573771v229.980327c-10.072131-1.678689-21.822951-3.357377-33.57377-3.357377-55.396721 0-100.721311 21.822951-100.721312 50.360656s45.32459 50.360656 100.721312 50.360656 100.721311-21.822951 100.721311-50.360656V374.347541l184.655738-25.180328v182.977049c-10.072131-1.678689-21.822951-3.357377-33.57377-3.357377-55.396721 0-100.721311 21.822951-100.721312 50.360656s45.32459 50.360656 100.721312 50.360656 100.721311-21.822951 100.721311-50.360656v-268.590164c0-10.072131-3.357377-18.465574-11.75082-25.180328z" fill="#CFD8DC" p-id="5431"></path></svg>