<?xml version="1.0" standalone="no"?><!DOCTYPE svg PUBLIC "-//W3C//DTD SVG 1.1//EN" "http://www.w3.org/Graphics/SVG/1.1/DTD/svg11.dtd"><svg t="1590981330090" class="icon" viewBox="0 0 1024 1024" version="1.1" xmlns="http://www.w3.org/2000/svg" p-id="1501" xmlns:xlink="http://www.w3.org/1999/xlink" width="16" height="16"><defs><style type="text/css"></style></defs><path d="M947.97338548 998.02347141H512c-65.59304059 0-129.24791467-12.85597867-189.19636385-38.21234252-57.8804243-24.48133689-109.85411318-59.5188243-154.47442015-104.14034489-44.62152059-44.62152059-79.659008-96.59278222-104.14034489-154.47442015-25.35515022-59.94844918-38.21234252-123.60332325-38.21234252-189.19636385s12.8571923-129.24791467 38.21234252-189.19636385c24.48133689-57.8804243 59.5188243-109.85289955 104.14034489-154.47442015s96.59399585-79.659008 154.47442015-104.14034489c59.94844918-25.35636385 123.60332325-38.21234252 189.19636385-38.21234252s129.24791467 12.8571923 189.19636385 38.21234252c57.8804243 24.48133689 109.85411318 59.5188243 154.47442015 104.14034489s79.659008 96.59399585 104.14034489 154.47442015c25.35636385 59.94844918 38.21234252 123.60332325 38.21234252 189.19636385 0 66.29694578-13.12419082 130.58169363-39.00969719 191.06899437-19.04063525 44.49651675-44.31568592 85.44438045-75.37974992 122.20522193l96.09276681 96.09155318a44.90672355 44.90672355 0 0 1-31.75340563 76.65770193zM512 115.78512118c-218.47396503 0-396.21487882 177.74091378-396.21487882 396.21487882S293.52603497 908.21487882 512 908.21487882h327.56470518l-49.98333629-49.98212267a44.90672355 44.90672355 0 0 1 0.262144-63.76410074C866.17596208 719.37774933 908.21366518 619.06155141 908.21366518 512c0.00121363-218.47396503-177.73970015-396.21487882-396.21366518-396.21487882z" p-id="1502" fill="#e6e6e6"></path><path d="M483.44936297 758.03306667a44.90793718 44.90793718 0 0 1-43.83144772-54.69464652l40.07769127-179.40722726c-16.39249541-1.17115259-31.5349523-11.33044622-38.2851603-27.5372563-9.535488-22.89390933 1.29251555-49.18234075 24.18642489-58.71782874l58.27606756-24.2725926a44.9042963 44.9042963 0 0 1 61.09047466 51.24187023l-40.14929541 179.72641185c14.90701275 2.0850157 28.42320592 11.61564918 34.92704711 26.40615349 9.98453097 22.70215585-0.32646637 49.19933155-23.02862221 59.18264888l-55.19466193 24.2725926a44.88730548 44.88730548 0 0 1-18.06851792 3.79987437z m10.63018192-387.68063526c-18.78455941 0-36.29359408-11.87900682-42.58019556-30.67448889-7.86432-23.51892859 4.82539141-48.96267378 28.34310637-56.82820741l43.54745838-14.56355556c23.5152877-7.86553363 48.96267378 4.82417778 56.8282074 28.34310637 7.86432 23.51892859-4.82539141 48.96267378-28.34310637 56.82820741l-43.54745836 14.56355556a44.84604208 44.84604208 0 0 1-14.24801186 2.33138252z" p-id="1503" fill="#e6e6e6"></path></svg>