<?xml version="1.0" standalone="no"?><!DOCTYPE svg PUBLIC "-//W3C//DTD SVG 1.1//EN" "http://www.w3.org/Graphics/SVG/1.1/DTD/svg11.dtd"><svg t="1592902916566" class="icon" viewBox="0 0 1024 1024" version="1.1" xmlns="http://www.w3.org/2000/svg" p-id="46940" xmlns:xlink="http://www.w3.org/1999/xlink" width="16" height="16"><defs><style type="text/css"></style></defs><path d="M725.333333 298.666667 725.333333 128 298.666667 128 298.666667 298.666667 725.333333 298.666667M597.333333 725.333333C668.16 725.333333 725.333333 668.16 725.333333 597.333333 725.333333 526.506667 668.16 469.333333 597.333333 469.333333 526.506667 469.333333 469.333333 526.506667 469.333333 597.333333 469.333333 668.16 526.506667 725.333333 597.333333 725.333333M810.666667 42.666667 981.333333 213.333333 981.333333 725.333333C981.333333 772.266667 942.933333 810.666667 896 810.666667L298.666667 810.666667C251.306667 810.666667 213.333333 772.266667 213.333333 725.333333L213.333333 128C213.333333 81.066667 251.733333 42.666667 298.666667 42.666667L810.666667 42.666667M42.666667 298.666667 128 298.666667 128 896 725.333333 896 725.333333 981.333333 128 981.333333C81.066667 981.333333 42.666667 942.933333 42.666667 896L42.666667 298.666667Z" p-id="46941" fill="#e6e6e6"></path></svg>