<?xml version="1.0" standalone="no"?><!DOCTYPE svg PUBLIC "-//W3C//DTD SVG 1.1//EN" "http://www.w3.org/Graphics/SVG/1.1/DTD/svg11.dtd"><svg t="1592901645002" class="icon" viewBox="0 0 1024 1024" version="1.1" xmlns="http://www.w3.org/2000/svg" p-id="36258" xmlns:xlink="http://www.w3.org/1999/xlink" width="16" height="16"><defs><style type="text/css"></style></defs><path d="M753.9 647.9l0.7 9.6-1.8 9.5c-6 32.7-30.5 58.2-62.4 65-5.7 1.2-11.4 1.8-17 1.8-26.7 0-52.3-13.2-68.1-36.2l-3.4-4.9-2.6-5.4c-12.3-25.8-23.1-51.4-32.3-76.7L428.5 749.2 320 640.7c-12.8-12.8-33.7-12.8-46.5 0L66 848.2V299.6h469.9c4.7-22.9 11.2-45.2 19.4-66.9H65.1c-36.4 0.6-65.6 30.5-65 66.9V959c0.6 36 30 65 66 65h659.4c36.2 0 65.4-29 66-65V450.3c-28.2 46-44.3 107.5-37.6 197.6z" p-id="36259" fill="#e6e6e6"></path><path d="M263.8 464.5m-98.9 0a98.9 98.9 0 1 0 197.8 0 98.9 98.9 0 1 0-197.8 0Z" p-id="36260" fill="#e6e6e6"></path><path d="M736.4 0c-19.4 0.2-31.2 21.3-19 39.1l36.5 53.5c-58.1 39.6-253.8 212.4-86.8 562.5 3.1 4.5 10.6 5.9 12-1.7C661.6 417 782 334.8 875.7 270.9l33.5 49.1c9.2 13.4 33.1 10.1 40.4-7.9l72.2-238.9c8.7-25.6-9.6-52.4-36.5-53.5L736.4 0z" p-id="36261" fill="#e6e6e6"></path></svg>