<?xml version="1.0" standalone="no"?><!DOCTYPE svg PUBLIC "-//W3C//DTD SVG 1.1//EN" "http://www.w3.org/Graphics/SVG/1.1/DTD/svg11.dtd"><svg t="1592901760089" class="icon" viewBox="0 0 1024 1024" version="1.1" xmlns="http://www.w3.org/2000/svg" p-id="38309" xmlns:xlink="http://www.w3.org/1999/xlink" width="16" height="16"><defs><style type="text/css"></style></defs><path d="M576 853.376a21.333333 21.333333 0 0 1-20.437333-15.189333l-112.554667-375.125334-103.978667 207.914667a21.248 21.248 0 0 1-36.778666 2.218667l-79.018667-118.485334H21.333333a21.333333 21.333333 0 0 1 0-42.666666h213.333334c7.125333 0 13.781333 3.541333 17.749333 9.514666l64.938667 97.408 111.530666-223.104a21.376 21.376 0 0 1 39.509334 3.413334l103.466666 344.746666L683.093333 187.861333a21.077333 21.077333 0 0 1 21.845334-17.109333 21.418667 21.418667 0 0 1 20.309333 18.944l39.296 353.578667 57.941333-28.970667a21.162667 21.162667 0 0 1 9.557334-2.261333h170.666666a21.333333 21.333333 0 0 1 0 42.666666h-165.632l-80.853333 40.405334a21.290667 21.290667 0 0 1-30.762667-16.725334l-27.52-247.424-101.034666 505.258667a21.248 21.248 0 0 1-19.925334 17.109333l-0.981333 0.042667z" fill="#e6e6e6" p-id="38310"></path></svg>