<?xml version="1.0" standalone="no"?><!DOCTYPE svg PUBLIC "-//W3C//DTD SVG 1.1//EN" "http://www.w3.org/Graphics/SVG/1.1/DTD/svg11.dtd"><svg t="1592901272043" class="icon" viewBox="0 0 1024 1024" version="1.1" xmlns="http://www.w3.org/2000/svg" p-id="20225" xmlns:xlink="http://www.w3.org/1999/xlink" width="16" height="16"><defs><style type="text/css"></style></defs><path d="M896 32H128a96 96 0 0 0-96 96v512a96 96 0 0 0 96 96h768a96 96 0 0 0 96-96V128a96 96 0 0 0-96-96z m-207.68 379.52l-320 192A32 32 0 0 1 320 576V192a32 32 0 0 1 48.32-27.52l320 192a32 32 0 0 1 0 55.04zM224 928v-96a32 32 0 0 0-64 0v32H64a32 32 0 0 0 0 64h96v32a32 32 0 0 0 64 0zM960 864H288v64h672a32 32 0 0 0 0-64z" fill="#e6e6e6" p-id="20226"></path></svg>